# xmcd
#
# Track frame offsets:
#	150
#	9572
#	21240
#	39106
#	55972
#	66438
#	83653
#	95127
#	115931
#	127153
#
# Disc length: 1896 seconds
#
# Revision: 0
# Processed by: cddbd v1.4PL0 Copyright (c) Steve Scherf et al.
# Submitted via: dBpowerAMP V4.0
#
DISCID=8407660a
DTITLE=King´s Warriors - The Blues
DYEAR=1900
DGENRE=
TTITLE0=I´m Still On The Road
TTITLE1=Black Woman
TTITLE2=Dream
TTITLE3=Can I Ever Find My Girl
TTITLE4=Riding Got To Be Blues
TTITLE5=Angel
TTITLE6=I Can Let You Free
TTITLE7=Father
TTITLE8=Liar
TTITLE9=[unknown]
EXTD=
EXTT0=
EXTT1=
EXTT2=
EXTT3=
EXTT4=
EXTT5=
EXTT6=
EXTT7=
EXTT8=
EXTT9=
PLAYORDER=
